{"title":"Kyaa Super Kool Hain Hum (2012) HDRip 720p x264 AAC TaRa.mkv","uid":15503444,"size":1248503412,"categoryP":"video","categoryS":"hd___movies","magnet":"?xt=urn:btih:251218cca62c94facdae83e89f54c89065bf50aa&amp;dn=Kyaa+Super+Kool+Hain+Hum+%282012%29+HDRip+720p+x264+AAC+TaRa.mkv&amp;tr=udp%3A%2F%2Ftracker.leechers-paradise.org%3A6969&amp;tr=udp%3A%2F%2Fzer0day.ch%3A1337&amp;tr=udp%3A%2F%2Fopen.demonii.com%3A1337&amp;tr=udp%3A%2F%2Ftracker.coppersurfer.tk%3A6969&amp;tr=udp%3A%2F%2Fexodus.desync.com%3A6969","seeders":0,"leechers":0,"uploader":"MdTaRa","files":1,"time":1470548630,"description":"=====================================================================\r\nGeneral\r\nKyaa Super Kool Hain Hum (2012) HDRip 720p x264 AAC TaRa.mkv\r\nFormat                      : Matroska\r\nFormat version              : Version 4 / Version 2\r\nFile size                   : 1.16 GiB\r\nDuration                    : 2 h 16 min\r\nOverall bit rate mode       : Variable\r\nOverall bit rate            : 1 220 kb/s\r\n======================================================================\r\nVideo\r\nID                          : 1\r\nFormat                      : AVC\r\nFormat/Info                 : Advanced Video Codec\r\nFormat profile              :   \r\nFormat settings, CABAC      : Yes\r\nFormat settings, ReFrames   : 3 frames\r\nFormat settings, GOP        : M=4, N=25\r\nCodec ID                    : V_MPEG4/ISO/AVC\r\nDuration                    : 2 h 16 min\r\nBit rate mode               : Variable\r\nBit rate                    : 1 122 kb/s\r\nMaximum bit rate            : 40.0 Mb/s\r\nWidth                       : 1 280 pixels\r\nHeight                      : 544 pixels\r\nDisplay aspect ratio        : 2.35:1\r\nFrame rate mode             : Constant\r\nFrame rate                  : 25.000 FPS\r\nColor space                 : YUV\r\nChroma subsampling          : 4:2:0\r\nBit depth                   : 8 bits\r\nScan type                   : Progressive\r\nBits/(Pixel*Frame)          : 0.064\r\nStream size                 : 1.07 GiB (92%)\r\nTitle                       : .....::::: TaRa :::::.....\r\nLanguage                    : Hindi\r\nDefault                     : Yes\r\nForced                      : No\r\n======================================================================\r\nAudio\r\nID                          : 2\r\nFormat                      : AAC\r\nFormat/Info                 : Advanced Audio Codec\r\nFormat profile              : LC\r\nCodec ID                    : A_AAC\r\nDuration                    : 2 h 16 min\r\nBit rate                    : 96.0 kb/s\r\nChannel(s)                  : 2 channels\r\nChannel positions           : Front: L R\r\nSampling rate               : 48.0 kHz\r\nFrame rate                  : 46.875 FPS (1024 spf)\r\nCompression mode            : Lossy\r\nDelay relative to video     : 9 ms\r\nStream size                 : 93.2 MiB (8%)\r\nTitle                       : .....::::: TaRa :::::.....\r\nLanguage                    : Hindi\r\nDefault                     : Yes\r\nForced                      : No\r\n=========================================================================== \nhttp://imgur.com/arNt3Ns \nhttp://imgur.com/Gzb2r9J","torrent":{"xt":"urn:btih:251218cca62c94facdae83e89f54c89065bf50aa","amp;dn":"Kyaa+Super+Kool+Hain+Hum+%282012%29+HDRip+720p+x264+AAC+TaRa.mkv","amp;tr":["udp%3A%2F%2Ftracker.leechers-paradise.org%3A6969","udp%3A%2F%2Fzer0day.ch%3A1337","udp%3A%2F%2Fopen.demonii.com%3A1337","udp%3A%2F%2Ftracker.coppersurfer.tk%3A6969","udp%3A%2F%2Fexodus.desync.com%3A6969"],"infoHash":"251218cca62c94facdae83e89f54c89065bf50aa","infoHashBuffer":{"type":"Buffer","data":[37,18,24,204,166,44,148,250,205,174,131,232,159,84,200,144,101,191,80,170]},"announce":[],"urlList":[]}}